<svg aria-roledescription="gitGraph" role="graphics-document document" viewBox="-276.7265625 -68 934.7265625 571.8786315917969" style="max-width: 934.7265625px;" xmlns="http://www.w3.org/2000/svg" width="100%" id="export-svg"><style xmlns="http://www.w3.org/1999/xhtml">@import url("https://cdnjs.cloudflare.com/ajax/libs/font-awesome/6.2.0/css/all.min.css"); p {margin: 0;}</style><style>#export-svg{font-family:arial,sans-serif;font-size:14px;fill:#000000;}@keyframes edge-animation-frame{from{stroke-dashoffset:0;}}@keyframes dash{to{stroke-dashoffset:0;}}#export-svg .edge-animation-slow{stroke-dasharray:9,5!important;stroke-dashoffset:900;animation:dash 50s linear infinite;stroke-linecap:round;}#export-svg .edge-animation-fast{stroke-dasharray:9,5!important;stroke-dashoffset:900;animation:dash 20s linear infinite;stroke-linecap:round;}#export-svg .error-icon{fill:#552222;}#export-svg .error-text{fill:#552222;stroke:#552222;}#export-svg .edge-thickness-normal{stroke-width:1px;}#export-svg .edge-thickness-thick{stroke-width:3.5px;}#export-svg .edge-pattern-solid{stroke-dasharray:0;}#export-svg .edge-thickness-invisible{stroke-width:0;fill:none;}#export-svg .edge-pattern-dashed{stroke-dasharray:3;}#export-svg .edge-pattern-dotted{stroke-dasharray:2;}#export-svg .marker{fill:#666;stroke:#666;}#export-svg .marker.cross{stroke:#666;}#export-svg svg{font-family:arial,sans-serif;font-size:14px;}#export-svg p{margin:0;}#export-svg .commit-id,#export-svg .commit-msg,#export-svg .branch-label{fill:lightgrey;color:lightgrey;font-family:'trebuchet ms',verdana,arial,sans-serif;font-family:var(--mermaid-font-family);}#export-svg .branch-label0{fill:#333;}#export-svg .commit0{stroke:hsl(0, 0%, 70.6862745098%);fill:hsl(0, 0%, 70.6862745098%);}#export-svg .commit-highlight0{stroke:rgb(74.75, 74.75, 74.75);fill:rgb(74.75, 74.75, 74.75);}#export-svg .label0{fill:hsl(0, 0%, 70.6862745098%);}#export-svg .arrow0{stroke:hsl(0, 0%, 70.6862745098%);}#export-svg .branch-label1{fill:white;}#export-svg .commit1{stroke:#555;fill:#555;}#export-svg .commit-highlight1{stroke:#aaaaaa;fill:#aaaaaa;}#export-svg .label1{fill:#555;}#export-svg .arrow1{stroke:#555;}#export-svg .branch-label2{fill:#333;}#export-svg .commit2{stroke:#BBB;fill:#BBB;}#export-svg .commit-highlight2{stroke:#444444;fill:#444444;}#export-svg .label2{fill:#BBB;}#export-svg .arrow2{stroke:#BBB;}#export-svg .branch-label3{fill:white;}#export-svg .commit3{stroke:#777;fill:#777;}#export-svg .commit-highlight3{stroke:#888888;fill:#888888;}#export-svg .label3{fill:#777;}#export-svg .arrow3{stroke:#777;}#export-svg .branch-label4{fill:#333;}#export-svg .commit4{stroke:#999;fill:#999;}#export-svg .commit-highlight4{stroke:#666666;fill:#666666;}#export-svg .label4{fill:#999;}#export-svg .arrow4{stroke:#999;}#export-svg .branch-label5{fill:#333;}#export-svg .commit5{stroke:#DDD;fill:#DDD;}#export-svg .commit-highlight5{stroke:#222222;fill:#222222;}#export-svg .label5{fill:#DDD;}#export-svg .arrow5{stroke:#DDD;}#export-svg .branch-label6{fill:#333;}#export-svg .commit6{stroke:#FFF;fill:#FFF;}#export-svg .commit-highlight6{stroke:#000000;fill:#000000;}#export-svg .label6{fill:#FFF;}#export-svg .arrow6{stroke:#FFF;}#export-svg .branch-label7{fill:#333;}#export-svg .commit7{stroke:#DDD;fill:#DDD;}#export-svg .commit-highlight7{stroke:#222222;fill:#222222;}#export-svg .label7{fill:#DDD;}#export-svg .arrow7{stroke:#DDD;}#export-svg .branch{stroke-width:1;stroke:#666;stroke-dasharray:2;}#export-svg .commit-label{font-size:10px;fill:rgb(2.7499999999, 2.7499999999, 2.7499999999);}#export-svg .commit-label-bkg{font-size:10px;fill:hsl(0, 0%, 98.9215686275%);opacity:0.5;}#export-svg .tag-label{font-size:10px;fill:#111111;}#export-svg .tag-label-bkg{fill:#eee;stroke:hsl(0, 0%, 83.3333333333%);}#export-svg .tag-hole{fill:#000000;}#export-svg .commit-merge{stroke:#eee;fill:#eee;}#export-svg .commit-reverse{stroke:#eee;fill:#eee;stroke-width:3;}#export-svg .commit-highlight-inner{stroke:#eee;fill:#eee;}#export-svg .arrow{stroke-width:8;stroke-linecap:round;fill:none;}#export-svg .gitTitleText{text-anchor:middle;font-size:18px;fill:#000000;}#export-svg .node .neo-node{stroke:#999;}#export-svg [data-look="neo"].node rect,#export-svg [data-look="neo"].cluster rect,#export-svg [data-look="neo"].node polygon{stroke:url(#export-svg-gradient);filter:drop-shadow( 1px 2px 2px rgba(185,185,185,1));}#export-svg [data-look="neo"].node path{stroke:url(#export-svg-gradient);}#export-svg [data-look="neo"].node .outer-path{filter:drop-shadow( 1px 2px 2px rgba(185,185,185,1));}#export-svg [data-look="neo"].node .neo-line path{stroke:#999;filter:none;}#export-svg [data-look="neo"].node circle{stroke:url(#export-svg-gradient);filter:drop-shadow( 1px 2px 2px rgba(185,185,185,1));}#export-svg [data-look="neo"].node circle .state-start{fill:#000000;}#export-svg [data-look="neo"].statediagram-cluster rect{fill:#eee;stroke:url(#export-svg-gradient);stroke-width:1px;}#export-svg [data-look="neo"].icon-shape .icon{fill:url(#export-svg-gradient);filter:drop-shadow( 1px 2px 2px rgba(185,185,185,1));}#export-svg [data-look="neo"].icon-shape .icon-neo path{stroke:url(#export-svg-gradient);filter:drop-shadow( 1px 2px 2px rgba(185,185,185,1));}#export-svg :root{--mermaid-font-family:"trebuchet ms",verdana,arial,sans-serif;}</style>
<rect x="-276.7265625" y="-68" width="934.7265625" height="571.8786315917969" fill="white" />
<g/><g class="commit-bullets"/><g class="commit-labels"/><g><line class="branch branch0" y2="0" x2="600" y1="0" x1="0"/><rect transform="translate(-19, -7.75)" height="19.5" width="48.3515625" y="0.25" x="-64.3515625" ry="4" rx="4" class="branchLabelBkg label0"/><g class="branchLabel"><g transform="translate(-74.3515625, -8.75)" class="label branch-label0"><text><tspan class="row" x="0" dy="1em" xml:space="preserve">main</tspan></text></g></g><line class="branch branch1" y2="90" x2="600" y1="90" x1="0"/><rect transform="translate(-19, 82.25)" height="19.5" width="126.953125" y="0.25" x="-142.953125" ry="4" rx="4" class="branchLabelBkg label1"/><g class="branchLabel"><g transform="translate(-152.953125, 81.25)" class="label branch-label1"><text><tspan class="row" x="0" dy="1em" xml:space="preserve">upstream-abc123</tspan></text></g></g><line class="branch branch2" y2="180" x2="600" y1="180" x1="0"/><rect transform="translate(-19, 172.25)" height="19.5" width="171.296875" y="0.25" x="-187.296875" ry="4" rx="4" class="branchLabelBkg label2"/><g class="branchLabel"><g transform="translate(-197.296875, 171.25)" class="label branch-label2"><text><tspan class="row" x="0" dy="1em" xml:space="preserve">upstream-abc123-merge</tspan></text></g></g><line class="branch branch3" y2="270" x2="600" y1="270" x1="0"/><rect transform="translate(-19, 262.25)" height="19.5" width="161.1953125" y="0.25" x="-177.1953125" ry="4" rx="4" class="branchLabelBkg label3"/><g class="branchLabel"><g transform="translate(-187.1953125, 261.25)" class="label branch-label3"><text><tspan class="row" x="0" dy="1em" xml:space="preserve">upstream-abc123-build</tspan></text></g></g><line class="branch branch4" y2="360" x2="600" y1="360" x1="0"/><rect transform="translate(-19, 352.25)" height="19.5" width="183.7265625" y="0.25" x="-199.7265625" ry="4" rx="4" class="branchLabelBkg label4"/><g class="branchLabel"><g transform="translate(-209.7265625, 351.25)" class="label branch-label4"><text><tspan class="row" x="0" dy="1em" xml:space="preserve">upstream-abc123-commits</tspan></text></g></g></g><g class="commit-arrows"><path class="arrow arrow1" d="M 10 0 L 10 70 A 20 20, 0, 0, 0, 30 90 L 60 90"/><path class="arrow arrow2" d="M 60 90 L 60 160 A 20 20, 0, 0, 0, 80 180 L 110 180"/><path class="arrow arrow2" d="M 110 180 L 160 180"/><path class="arrow arrow1" d="M 60 90 L 210 90"/><path class="arrow arrow2" d="M 160 180 L 190 180 A 20 20, 0, 0, 0, 210 160 L 210 90"/><path class="arrow arrow3" d="M 210 90 L 210 250 A 20 20, 0, 0, 0, 230 270 L 260 270"/><path class="arrow arrow1" d="M 210 90 L 310 90"/><path class="arrow arrow3" d="M 260 270 L 290 270 A 20 20, 0, 0, 0, 310 250 L 310 90"/><path class="arrow arrow1" d="M 310 90 L 360 90"/><path class="arrow arrow0" d="M 10 0 L 410 0"/><path class="arrow arrow1" d="M 360 90 L 390 90 A 20 20, 0, 0, 0, 410 70 L 410 0"/><path class="arrow arrow4" d="M 410 0 L 410 340 A 20 20, 0, 0, 0, 430 360 L 460 360"/><path class="arrow arrow4" d="M 460 360 L 510 360"/><path class="arrow arrow0" d="M 410 0 L 560 0"/><path class="arrow arrow4" d="M 510 360 L 540 360 A 20 20, 0, 0, 0, 560 340 L 560 0"/></g><g class="commit-bullets"><circle class="commit main commit0" r="10" cy="0" cx="10"/><circle class="commit Draft PR commit1" r="10" cy="90" cx="60"/><circle class="commit Pull upstream commit2" r="10" cy="180" cx="110"/><circle class="commit Resolve conflicts commit2" r="10" cy="180" cx="160"/><circle class="commit 4-cfa5021 commit1" r="9" cy="90" cx="210"/><circle class="commit commit-merge 4-cfa5021 commit1" r="6" cy="90" cx="210"/><circle class="commit Fix compilation commit3" r="10" cy="270" cx="260"/><circle class="commit 6-b1c4dce commit1" r="9" cy="90" cx="310"/><circle class="commit commit-merge 6-b1c4dce commit1" r="6" cy="90" cx="310"/><circle class="commit Fix tests &amp; CI commit1" r="10" cy="90" cx="360"/><circle class="commit 8-b8fc521 commit0" r="9" cy="0" cx="410"/><circle class="commit commit-merge 8-b8fc521 commit0" r="6" cy="0" cx="410"/><circle class="commit Pull upstream again commit4" r="10" cy="360" cx="460"/><circle class="commit Keep main changes commit4" r="10" cy="360" cx="510"/><circle class="commit 11-2b44ef4 commit0" r="9" cy="0" cx="560"/><circle class="commit commit-merge 11-2b44ef4 commit0" r="6" cy="0" cx="560"/></g><g class="commit-labels"><g transform="translate(-19.538281249999997, 17.37109375) rotate(-45, 0, 0)"><rect height="15" width="25.6796875" y="13.5" x="-2.83984375" class="commit-label-bkg"/><text class="commit-label" y="25" x="-0.83984375">main</text></g><g transform="translate(-25.870625, 23.036875000000002) rotate(-45, 50, 90)"><rect height="15" width="42.34375" y="103.5" x="38.828125" class="commit-label-bkg"/><text class="commit-label" y="115" x="40.828125">Draft PR</text></g><g transform="translate(-34.533437500000005, 30.7878125) rotate(-45, 100, 180)"><rect height="15" width="65.140625" y="193.5" x="77.4296875" class="commit-label-bkg"/><text class="commit-label" y="205" x="79.4296875">Pull upstream</text></g><g transform="translate(-39.811875, 35.510625000000005) rotate(-45, 150, 180)"><rect height="15" width="79.03125" y="193.5" x="120.484375" class="commit-label-bkg"/><text class="commit-label" y="205" x="122.484375">Resolve conflicts</text></g><g transform="translate(-36.64421875, 32.67640625) rotate(-45, 250, 270)"><rect height="15" width="70.6953125" y="283.5" x="224.65234375" class="commit-label-bkg"/><text class="commit-label" y="295" x="226.65234375">Fix compilation</text></g><g transform="translate(-33.892187500000006, 30.214062499999997) rotate(-45, 350, 90)"><rect height="15" width="63.453125" y="103.5" x="328.2734375" class="commit-label-bkg"/><text class="commit-label" y="115" x="330.2734375">Fix tests &amp; CI</text></g><g transform="translate(-44.8884375, 40.0528125) rotate(-45, 450, 360)"><rect height="15.1044921875" width="92.390625" y="373.5" x="413.8046875" class="commit-label-bkg"/><text class="commit-label" y="385" x="415.8046875">Pull upstream again</text></g><g transform="translate(-44.89140625, 40.05546875) rotate(-45, 500, 360)"><rect height="15.1044921875" width="92.3984375" y="373.5" x="463.80078125" class="commit-label-bkg"/><text class="commit-label" y="385" x="465.80078125">Keep main changes</text></g></g></svg>